<svg xmlns="http://www.w3.org/2000/svg" xmlns:xlink="http://www.w3.org/1999/xlink" width="114" height="43" viewBox="0 0 114 43">
    <defs>
        <path id="6ixa4wp4aa" d="M0.41 0.215H113.36V32.224000000000004H0.41z"/>
        <path id="bo297rhh8c" d="M0.41 0.215H113.36V32.224000000000004H0.41z"/>
        <path id="kqy7skz7me" d="M0.41 0.215H113.36V32.224000000000004H0.41z"/>
        <path id="7fewomwtcg" d="M0.41 0.215H113.36V32.224000000000004H0.41z"/>
        <path id="x69hd4zt6i" d="M0.41 0.215H113.36V32.224000000000004H0.41z"/>
        <path id="6zghbzblok" d="M0.41 0.215H113.36V32.224000000000004H0.41z"/>
        <path id="7avl46416m" d="M0.41 0.215H113.36V32.224000000000004H0.41z"/>
        <path id="xjfncqwp3o" d="M0.41 0.215H113.36V32.224000000000004H0.41z"/>
        <path id="s7rzs2ilhq" d="M0.41 0.215H113.36V32.224000000000004H0.41z"/>
        <path id="kbeuy5ebbs" d="M0.41 0.215H113.36V32.224000000000004H0.41z"/>
        <path id="tzc486w4ru" d="M0.41 0.215H113.36V32.224000000000004H0.41z"/>
        <path id="iwr29vm02w" d="M0.41 0.215H113.36V32.224000000000004H0.41z"/>
        <path id="ck9z2mluvy" d="M0.41 0.215H113.36V32.224000000000004H0.41z"/>
        <path id="zhd3w4189A" d="M0.41 0.215H113.36V32.224000000000004H0.41z"/>
        <path id="w048fou1kC" d="M0.41 0.215H113.36V32.224000000000004H0.41z"/>
        <path id="bl77hmh1xE" d="M0.41 0.215H113.36V32.224000000000004H0.41z"/>
        <path id="otgsb3wn8G" d="M0.41 0.215H113.36V32.224000000000004H0.41z"/>
        <path id="81k4nnq9uI" d="M0.41 0.215H113.36V32.224000000000004H0.41z"/>
        <path id="uujycvnwqK" d="M0.41 0.215H113.36V32.224000000000004H0.41z"/>
        <path id="qw4tahebbM" d="M0.41 0.215H113.36V32.224000000000004H0.41z"/>
        <path id="06xsu1fl8O" d="M0.41 0.215H113.36V32.224000000000004H0.41z"/>
    </defs>
    <g fill="none" fill-rule="evenodd">
        <g>
            <g>
                <g>
                    <g transform="translate(-80 -11) translate(32 11) translate(48)">
                        <mask id="i57x5bpayb" fill="#fff">
                            <use xlink:href="#6ixa4wp4aa"/>
                        </mask>
                        <path fill="#FFF" fill-rule="nonzero" d="M17.872 31.051c-1.377.485-3.99 1.137-6.602 1.137-3.61 0-6.223-.934-8.036-2.73C1.408 27.717.421 25.075.45 22.109.474 15.406 5.26 11.56 11.747 11.56c2.55 0 4.51.51 5.487.983l-.937 3.654c-1.087-.488-2.44-.871-4.613-.871-3.723 0-6.537 2.159-6.537 6.54 0 4.164 2.551 6.63 6.226 6.63 1.023 0 1.848-.115 2.198-.295v-4.226h-3.048v-3.563h7.36V31.05h-.011z" mask="url(#i57x5bpayb)"/>
                    </g>
                    <g transform="translate(-80 -11) translate(32 11) translate(48)">
                        <mask id="13hnafgzzd" fill="#fff">
                            <use xlink:href="#bo297rhh8c"/>
                        </mask>
                        <path fill="#FFF" fill-rule="nonzero" d="M29.694 25.567L24.246 25.567 24.246 29.171 30.346 29.171 30.346 31.985 20.884 31.985 20.884 16.819 30.031 16.819 30.031 19.631 24.246 19.631 24.246 22.788 29.694 22.788z" mask="url(#13hnafgzzd)"/>
                    </g>
                    <g transform="translate(-80 -11) translate(32 11) translate(48)">
                        <mask id="cvb16uy17f" fill="#fff">
                            <use xlink:href="#kqy7skz7me"/>
                        </mask>
                        <path fill="#FFF" fill-rule="nonzero" d="M32.632 16.82h3.911l3.077 5.557c.875 1.598 1.762 3.486 2.425 5.202h.06c-.223-2.012-.287-4.054-.287-6.325V16.82h3.076v15.15H41.37l-3.151-5.838c-.875-1.62-1.848-3.573-2.573-5.35l-.064.025c.088 2.008.138 4.139.138 6.606v4.557h-3.087v.016V16.82z" mask="url(#cvb16uy17f)"/>
                    </g>
                    <g transform="translate(-80 -11) translate(32 11) translate(48)">
                        <mask id="qt2zuq8f5h" fill="#fff">
                            <use xlink:href="#7fewomwtcg"/>
                        </mask>
                        <path fill="#FFF" fill-rule="nonzero" d="M56.631 25.567L51.181 25.567 51.181 29.171 57.269 29.171 57.269 31.985 47.808 31.985 47.808 16.819 56.968 16.819 56.968 19.631 51.181 19.631 51.181 22.788 56.631 22.788z" mask="url(#qt2zuq8f5h)"/>
                    </g>
                    <g transform="translate(-80 -11) translate(32 11) translate(48)">
                        <mask id="0frawgyr4j" fill="#fff">
                            <use xlink:href="#x69hd4zt6i"/>
                        </mask>
                        <path fill="#FFF" fill-rule="nonzero" d="M73.141 24.243c0 4.969-2.952 7.98-7.286 7.98-4.403 0-6.976-3.392-6.976-7.712 0-4.548 2.844-7.934 7.211-7.934 4.566 0 7.051 3.487 7.051 7.666m-10.726.207c0 2.962 1.36 5.053 3.611 5.053 2.266 0 3.567-2.206 3.567-5.144 0-2.72-1.273-5.058-3.588-5.058-2.258 0-3.59 2.207-3.59 5.149" mask="url(#0frawgyr4j)"/>
                    </g>
                    <g transform="translate(-80 -11) translate(32 11) translate(48)">
                        <mask id="b4oadiu96l" fill="#fff">
                            <use xlink:href="#6zghbzblok"/>
                        </mask>
                        <path fill="#AA217D" fill-rule="nonzero" d="M75.472 22.814L98.054 0.215 88.936 25.479z" mask="url(#b4oadiu96l)"/>
                    </g>
                    <g transform="translate(-80 -11) translate(32 11) translate(48)">
                        <mask id="svtm9zb3in" fill="#fff">
                            <use xlink:href="#7avl46416m"/>
                        </mask>
                        <path fill="#AA217D" fill-rule="nonzero" d="M103.251 32.079L98.054 0.215 90.748 26.334z" mask="url(#svtm9zb3in)"/>
                    </g>
                    <g transform="translate(-80 -11) translate(32 11) translate(48)">
                        <mask id="uc5xu7z55p" fill="#fff">
                            <use xlink:href="#xjfncqwp3o"/>
                        </mask>
                        <path fill="#E32F7F" fill-rule="nonzero" d="M74.777 17.818L91.398 1.188 84.418 19.786z" mask="url(#uc5xu7z55p)"/>
                    </g>
                    <g transform="translate(-80 -11) translate(32 11) translate(48)">
                        <mask id="9gbvcaqffr" fill="#fff">
                            <use xlink:href="#s7rzs2ilhq"/>
                        </mask>
                        <path fill="#E32F7F" fill-rule="nonzero" d="M95.214 24.641L91.398 1.188 86.287 20.412z" mask="url(#9gbvcaqffr)"/>
                    </g>
                    <g transform="translate(-80 -11) translate(32 11) translate(48)">
                        <mask id="vu269mjymt" fill="#fff">
                            <use xlink:href="#kbeuy5ebbs"/>
                        </mask>
                        <path fill="#922681" fill-rule="nonzero" d="M87.987 10.282L79.505 18.777 84.418 19.786z" mask="url(#vu269mjymt)"/>
                    </g>
                    <g transform="translate(-80 -11) translate(32 11) translate(48)">
                        <mask id="bo9fdxny7v" fill="#fff">
                            <use xlink:href="#tzc486w4ru"/>
                        </mask>
                        <path fill="#922681" fill-rule="nonzero" d="M94.487 20.195L92.637 19.605 91.69 22.965 95.214 24.641z" mask="url(#bo9fdxny7v)"/>
                    </g>
                    <g transform="translate(-80 -11) translate(32 11) translate(48)">
                        <mask id="1gc2oa580x" fill="#fff">
                            <use xlink:href="#iwr29vm02w"/>
                        </mask>
                        <path fill="#E76924" fill-rule="nonzero" d="M70.253 7.023L84.858 0.255 76.051 10.611z" mask="url(#1gc2oa580x)"/>
                    </g>
                    <g transform="translate(-80 -11) translate(32 11) translate(48)">
                        <mask id="1sg5vqom4z" fill="#fff">
                            <use xlink:href="#ck9z2mluvy"/>
                        </mask>
                        <path fill="#E76924" fill-rule="nonzero" d="M81.927 16.36L84.858 0.255 77.126 11.469z" mask="url(#1sg5vqom4z)"/>
                    </g>
                    <g transform="translate(-80 -11) translate(32 11) translate(48)">
                        <mask id="uzf0veb92B" fill="#fff">
                            <use xlink:href="#zhd3w4189A"/>
                        </mask>
                        <path fill="#D41F34" fill-rule="nonzero" d="M83.187 9.4L79.102 13.487 81.927 16.36z" mask="url(#uzf0veb92B)"/>
                    </g>
                    <g transform="translate(-80 -11) translate(32 11) translate(48)">
                        <mask id="ym32zvgj3D" fill="#fff">
                            <use xlink:href="#w048fou1kC"/>
                        </mask>
                        <path fill="#0894CE" fill-rule="nonzero" d="M89.942 18.762L104.766 6.665 97.601 21.164z" mask="url(#ym32zvgj3D)"/>
                    </g>
                    <g transform="translate(-80 -11) translate(32 11) translate(48)">
                        <mask id="efdhc4budF" fill="#fff">
                            <use xlink:href="#bl77hmh1xE"/>
                        </mask>
                        <path fill="#0894CE" fill-rule="nonzero" d="M105.976 26.016L104.766 6.665 99.073 21.83z" mask="url(#efdhc4budF)"/>
                    </g>
                    <g transform="translate(-80 -11) translate(32 11) translate(48)">
                        <mask id="jamp8i1gnH" fill="#fff">
                            <use xlink:href="#otgsb3wn8G"/>
                        </mask>
                        <path fill="#0781C2" fill-rule="nonzero" d="M101.848 23.516L100.815 17.192 99.073 21.83z" mask="url(#jamp8i1gnH)"/>
                    </g>
                    <g transform="translate(-80 -11) translate(32 11) translate(48)">
                        <mask id="s0xla21g9J" fill="#fff">
                            <use xlink:href="#81k4nnq9uI"/>
                        </mask>
                        <path fill="#0781C2" fill-rule="nonzero" d="M92.637 19.605L93.736 15.658 89.942 18.762z" mask="url(#s0xla21g9J)"/>
                    </g>
                    <g transform="translate(-80 -11) translate(32 11) translate(48)">
                        <mask id="to5f3vi34L" fill="#fff">
                            <use xlink:href="#uujycvnwqK"/>
                        </mask>
                        <path fill="#94BE3D" fill-rule="nonzero" d="M101.835 21.19L109.175 10.601 107.158 21.19z" mask="url(#to5f3vi34L)"/>
                    </g>
                    <g transform="translate(-80 -11) translate(32 11) translate(48)">
                        <mask id="skjvzt6tvN" fill="#fff">
                            <use xlink:href="#qw4tahebbM"/>
                        </mask>
                        <path fill="#94BE3D" fill-rule="nonzero" d="M113.374 22.748L109.175 10.601 108.228 21.341z" mask="url(#skjvzt6tvN)"/>
                    </g>
                    <g transform="translate(-80 -11) translate(32 11) translate(48)">
                        <mask id="utnbf0hkcP" fill="#fff">
                            <use xlink:href="#06xsu1fl8O"/>
                        </mask>
                        <path fill="#048D45" fill-rule="nonzero" d="M105.664 21.19L105.345 16.106 101.827 21.19z" mask="url(#utnbf0hkcP)"/>
                    </g>
                    <text fill="#FFF" font-family="Montserrat-Medium, Montserrat" font-size="5.978" font-weight="400" transform="translate(-80 -11) translate(32 11) translate(48)">
                        <tspan x="20.651" y="40.237">LEARN . TEACH . ASSESS</tspan>
                    </text>
                </g>
            </g>
        </g>
    </g>
</svg>
